HIERARCHY
ROOT SpineBase
{
  OFFSET 0.000000 0.000000 0.000000
  CHANNELS 6 Xposition Yposition Zposition Zrotation Xrotation Yrotation
  JOINT SpineMid
  {
    OFFSET 0.000000 27.161883 0.000000
    CHANNELS 3 Zrotation Xrotation Yrotation
    JOINT SpineShoulder
    {
      OFFSET -0.044796 20.277106 -0.704230
      CHANNELS 3 Zrotation Xrotation Yrotation
      JOINT Neck
      {
        OFFSET -0.052732 6.734024 -0.479235
        CHANNELS 3 Zrotation Xrotation Yrotation
        JOINT Head
        {
          OFFSET -1.325367 12.159363 0.368117
          CHANNELS 3 Zrotation Xrotation Yrotation
          End Site
          {
            OFFSET 0 0 0
          }
        }
      }
      JOINT ShoulderLeft
      {
        OFFSET -12.287175 -3.037395 4.807921
        CHANNELS 3 Zrotation Xrotation Yrotation
        JOINT ElbowLeft
        {
          OFFSET -3.122013 -22.165813 -1.251653
          CHANNELS 3 Zrotation Xrotation Yrotation
          JOINT WristLeft
          {
            OFFSET 0.921385 -16.623998 -9.789232
            CHANNELS 3 Zrotation Xrotation Yrotation
            JOINT HandLeft
            {
              OFFSET 3.715334 -2.471060 -3.018683
              CHANNELS 3 Zrotation Xrotation Yrotation
              JOINT HandTipLeft
              {
                OFFSET 1.725379 -4.003577 -6.414629
                CHANNELS 3 Zrotation Xrotation Yrotation
                End Site
                {
                  OFFSET 0 0 0
                }
              }
              JOINT ThumbLeft
              {
                OFFSET 1.128981 -0.614638 -0.320852
                CHANNELS 3 Zrotation Xrotation Yrotation
                End Site
                {
                  OFFSET 0 0 0
                }
              }
            }
          }
        }
      }
      JOINT ShoulderRight
      {
        OFFSET 11.260309 -3.431326 -6.942183
        CHANNELS 3 Zrotation Xrotation Yrotation
        JOINT ElbowRight
        {
          OFFSET 0.674712 -22.161576 -3.617377
          CHANNELS 3 Zrotation Xrotation Yrotation
          JOINT WristRight
          {
            OFFSET -15.310693 -17.827268 -3.724901
            CHANNELS 3 Zrotation Xrotation Yrotation
            JOINT HandRight
            {
              OFFSET -3.381828 -2.588530 0.799465
              CHANNELS 3 Zrotation Xrotation Yrotation
              JOINT HandTipRight
              {
                OFFSET -4.090926 -3.665071 -1.084280
                CHANNELS 3 Zrotation Xrotation Yrotation
                End Site
                {
                  OFFSET 0 0 0
                }
              }
              JOINT ThumbRight
              {
                OFFSET -0.636499 -0.989997 -4.345814
                CHANNELS 3 Zrotation Xrotation Yrotation
                End Site
                {
                  OFFSET 0 0 0
                }
              }
            }
          }
        }
      }
    }
  }
  JOINT HipLeft
  {
    OFFSET -5.625565 0.055661 -0.982658
    CHANNELS 3 Zrotation Xrotation Yrotation
    JOINT KneeLeft
    {
      OFFSET 0.959491 -29.941786 5.576704
      CHANNELS 3 Zrotation Xrotation Yrotation
      JOINT AnkleLeft
      {
        OFFSET 3.156515 -31.204383 7.000943
        CHANNELS 3 Zrotation Xrotation Yrotation
        JOINT FootLeft
        {
          OFFSET -3.508529 -2.252951 -11.213400
          CHANNELS 3 Zrotation Xrotation Yrotation
          End Site
          {
            OFFSET 0 0 0
          }
        }
      }
    }
  }
  JOINT HipRight
  {
    OFFSET 5.163855 1.346988 -5.166028
    CHANNELS 3 Zrotation Xrotation Yrotation
    JOINT KneeRight
    {
      OFFSET 2.869717 -27.217681 2.189525
      CHANNELS 3 Zrotation Xrotation Yrotation
      JOINT AnkleRight
      {
        OFFSET 2.916152 -34.728029 7.433783
        CHANNELS 3 Zrotation Xrotation Yrotation
        JOINT FootRight
        {
          OFFSET -5.603201 -4.310154 2.179860
          CHANNELS 3 Zrotation Xrotation Yrotation
          End Site
          {
            OFFSET 0 0 0
          }
        }
      }
    }
  }
}
MOTION
Frames: 9
Frame Time: 0.033333
23.868175 69.154302 366.296724 -0.328098 -3.606727 25.445078 0.009712 -0.219096 -25.475369 -0.232199 -0.015073 -0.038450 1.094090 7.609055 0.376996 0.000000 0.000000 0.000000 -11.018264 19.847930 0.781834 107.335604 56.773550 -76.505877 -22.993072 -24.197690 42.711324 -24.802699 41.764971 -16.923281 0.000000 0.000000 0.000000 0.000000 0.000000 0.000000 -13.188623 20.308425 5.541404 -81.464752 7.540195 -3.006778 12.232115 5.641375 -30.352651 -18.226451 20.872259 31.803722 0.000000 0.000000 0.000000 0.000000 0.000000 0.000000 5.950516 6.248101 -25.255399 -2.380901 -4.568735 -0.680374 1.113407 -3.537045 0.003073 0.000000 0.000000 0.000000 4.123022 6.228348 -25.234338 0.148056 -4.157218 -0.262703 11.607569 7.688840 -5.147331 0.000000 0.000000 0.000000
23.889369 69.171038 366.304961 -0.250839 -3.606444 24.362610 0.043872 -0.137431 -24.387266 -0.178839 0.020300 -0.033107 0.586999 7.420114 0.414974 0.000000 0.000000 0.000000 -11.522661 19.120414 0.873959 108.341075 56.775812 -77.390025 -21.405684 -22.892308 43.321163 -28.985814 42.351161 -15.000000 0.000000 0.000000 0.000000 0.000000 0.000000 0.000000 -12.739112 19.518024 5.206968 -81.240085 8.708175 -2.261504 10.882835 6.657930 -30.821702 -16.109437 19.513309 31.906398 0.000000 0.000000 0.000000 0.000000 0.000000 0.000000 5.689151 6.200154 -24.161759 -2.393283 -4.365433 -0.672675 1.142358 -3.514270 -0.212065 0.000000 0.000000 0.000000 3.856395 5.632594 -24.179246 -0.946532 -3.107823 -0.429014 13.840795 13.153993 -14.898343 0.000000 0.000000 0.000000
23.943507 69.127515 366.293925 -0.161351 -3.595532 24.024029 0.046080 -0.079830 -24.042537 -0.157171 0.013137 -0.029643 0.205621 7.444640 0.457322 0.000000 0.000000 0.000000 -11.500897 17.927372 0.875540 108.963142 56.849777 -78.634915 -21.405454 -24.129656 42.951653 -25.899747 43.855170 -15.116203 0.000000 0.000000 0.000000 0.000000 0.000000 0.000000 -12.668515 19.797766 5.178807 -80.906294 10.855256 -2.411561 10.236386 11.244430 -32.331267 -12.168857 13.961744 32.184752 0.000000 0.000000 0.000000 0.000000 0.000000 0.000000 5.513590 6.102285 -23.812257 -2.409002 -4.199743 -0.667613 1.138929 -3.514370 -0.191468 0.000000 0.000000 0.000000 3.402419 4.346104 -23.912873 -1.763218 -1.080495 -0.382107 16.595465 18.410529 -25.919400 0.000000 0.000000 0.000000
24.007573 69.060009 366.294146 -0.101411 -3.620372 23.920967 0.003336 -0.012635 -23.935684 -0.189869 -0.018955 -0.031416 0.160391 7.731551 0.499806 0.000000 0.000000 0.000000 -10.909525 16.785044 0.796924 108.724454 57.231082 -79.592567 -21.283911 -25.725351 42.500262 -20.466572 44.956147 -16.690453 0.000000 0.000000 0.000000 0.000000 0.000000 0.000000 -12.526719 20.747587 5.270866 -80.253884 12.209734 -3.331651 9.673135 15.534768 -33.655449 -9.181934 10.570645 32.765601 0.000000 0.000000 0.000000 0.000000 0.000000 0.000000 5.343180 6.007590 -23.709352 -2.363996 -4.015558 -0.648168 1.108994 -3.532420 0.020604 0.000000 0.000000 0.000000 3.338574 3.531838 -23.851072 -2.858041 0.086957 -0.447523 20.371173 21.549251 -33.156602 0.000000 0.000000 0.000000
24.075460 68.970819 366.296139 -0.058871 -3.651951 23.691206 -0.062233 0.044286 -23.703331 -0.240756 -0.050204 -0.035274 0.314701 8.087723 0.530290 0.000000 0.000000 0.000000 -10.184982 16.372395 0.682816 107.949083 57.625622 -79.795691 -20.518848 -25.874376 42.604852 -15.458093 44.823350 -19.885706 0.000000 0.000000 0.000000 0.000000 0.000000 0.000000 -12.727154 21.880874 5.540042 -79.343498 12.567193 -4.543918 7.855322 14.584821 -33.567964 -8.133345 12.600777 33.281112 0.000000 0.000000 0.000000 0.000000 0.000000 0.000000 5.194985 5.872584 -23.475067 -2.354246 -3.791449 -0.634519 1.087427 -3.552079 0.186126 0.000000 0.000000 0.000000 3.440651 3.338706 -23.625284 -3.546171 0.395147 -0.530234 22.785810 23.294651 -37.558622 0.000000 0.000000 0.000000
24.149465 68.882980 366.304111 -0.017636 -3.705554 23.512278 -0.138579 0.081172 -23.521876 -0.286080 -0.086228 -0.039259 0.393832 8.556506 0.577312 0.000000 0.000000 0.000000 -10.304855 16.469794 0.749032 108.291554 57.463053 -79.865372 -20.178883 -25.151042 42.851206 -14.632490 45.357542 -20.847245 0.000000 0.000000 0.000000 0.000000 0.000000 0.000000 -12.003411 22.064223 5.331138 -78.936528 12.778199 -4.774400 4.684210 8.464982 -32.437068 -8.897646 19.005759 33.490571 0.000000 0.000000 0.000000 0.000000 0.000000 0.000000 5.020974 5.713639 -23.295173 -2.320463 -3.516111 -0.613079 1.118304 -3.560538 0.018285 0.000000 0.000000 0.000000 3.429451 2.804352 -23.475828 -4.351482 1.138299 -0.562036 25.381621 22.780846 -36.796029 0.000000 0.000000 0.000000
24.207071 68.813688 366.306589 0.020486 -3.738829 23.055585 -0.173437 0.115742 -23.062635 -0.303009 -0.105624 -0.040480 0.173855 8.878857 0.644521 0.000000 0.000000 0.000000 -10.764568 17.780348 0.812279 108.322567 57.025966 -78.701441 -19.730720 -21.841097 43.883415 -19.676298 47.290163 -19.543129 0.000000 0.000000 0.000000 0.000000 0.000000 0.000000 -12.049112 22.299045 5.392208 -78.435590 10.425933 -5.301479 3.417246 5.517491 -31.362659 -9.930826 22.606729 33.144872 0.000000 0.000000 0.000000 0.000000 0.000000 0.000000 4.855216 5.497788 -22.827409 -2.346610 -3.200739 -0.602541 1.175053 -3.554601 -0.331313 0.000000 0.000000 0.000000 3.550192 3.349555 -22.987528 -4.212173 0.362497 -0.646675 23.748409 21.646967 -33.296742 0.000000 0.000000 0.000000
24.233098 68.755608 366.320806 0.040969 -3.754573 22.610982 -0.187122 0.145241 -22.616602 -0.309824 -0.117979 -0.040998 -0.323834 9.040146 0.734899 0.000000 0.000000 0.000000 -11.281839 18.980720 0.894390 108.938327 56.546506 -78.073306 -18.923855 -20.205950 44.309529 -20.299062 48.377570 -20.769991 0.000000 0.000000 0.000000 0.000000 0.000000 0.000000 -12.407818 22.357206 5.543191 -78.419228 8.069945 -5.562129 3.119646 3.417262 -30.435450 -12.018861 25.895870 33.124018 0.000000 0.000000 0.000000 0.000000 0.000000 0.000000 4.845050 5.969648 -22.407914 -2.231129 -3.599340 -0.597964 1.236915 -3.539580 -0.728761 0.000000 0.000000 0.000000 3.795061 4.401149 -22.482020 -3.602532 -1.124840 -0.731056 18.485488 18.375533 -25.268992 0.000000 0.000000 0.000000
24.268157 68.786709 366.343208 0.022769 -3.773781 22.363323 -0.179849 0.167551 -22.370088 -0.297725 -0.135830 -0.041453 -0.771092 9.192625 0.817264 0.000000 0.000000 0.000000 -11.784452 19.885370 0.994913 109.795126 55.911855 -77.751191 -16.808756 -21.174452 43.904070 -23.578038 49.588055 -18.673779 0.000000 0.000000 0.000000 0.000000 0.000000 0.000000 -13.416036 22.467881 5.953892 -78.495950 5.730105 -5.838797 2.644676 8.088401 -30.873217 -10.463504 22.324828 33.571386 0.000000 0.000000 0.000000 0.000000 0.000000 0.000000 4.634555 6.015903 -22.184175 -2.030235 -3.536186 -0.551344 1.304939 -3.520717 -1.170312 0.000000 0.000000 0.000000 3.593322 6.071485 -22.166613 -1.044446 -3.199430 -0.450033 12.901229 12.874617 -14.640567 0.000000 0.000000 0.000000
